# Blender v2.79 (sub 0) OBJ File: ''
# www.blender.org
mtllib g.mtl
o Text
v 0.000000 0.070000 -0.470588
v 0.411765 0.070000 -0.470588
v 0.411765 0.070000 -0.352941
v 0.117647 0.070000 -0.352941
v 0.117647 0.070000 -0.117647
v 0.294118 0.070000 -0.117647
v 0.294118 0.070000 -0.176471
v 0.176471 0.070000 -0.176471
v 0.176471 0.070000 -0.294118
v 0.411765 0.070000 -0.294118
v 0.411765 0.070000 0.000000
v 0.000000 0.070000 0.000000
v 0.000000 -0.070000 -0.470588
v 0.411765 -0.070000 -0.470588
v 0.411765 -0.070000 -0.352941
v 0.117647 -0.070000 -0.352941
v 0.117647 -0.070000 -0.117647
v 0.294118 -0.070000 -0.117647
v 0.294118 -0.070000 -0.176471
v 0.176471 -0.070000 -0.176471
v 0.176471 -0.070000 -0.294118
v 0.411765 -0.070000 -0.294118
v 0.411765 -0.070000 0.000000
v 0.000000 -0.070000 0.000000
v 0.000000 -0.070000 -0.470588
v 0.000000 0.070000 -0.470588
v 0.411765 -0.070000 -0.470588
v 0.411765 0.070000 -0.470588
v 0.411765 -0.070000 -0.352941
v 0.411765 0.070000 -0.352941
v 0.117647 -0.070000 -0.352941
v 0.117647 0.070000 -0.352941
v 0.117647 -0.070000 -0.117647
v 0.117647 0.070000 -0.117647
v 0.294118 -0.070000 -0.117647
v 0.294118 0.070000 -0.117647
v 0.294118 -0.070000 -0.176471
v 0.294118 0.070000 -0.176471
v 0.176471 -0.070000 -0.176471
v 0.176471 0.070000 -0.176471
v 0.176471 -0.070000 -0.294118
v 0.176471 0.070000 -0.294118
v 0.411765 -0.070000 -0.294118
v 0.411765 0.070000 -0.294118
v 0.411765 -0.070000 0.000000
v 0.411765 0.070000 0.000000
v 0.000000 -0.070000 0.000000
v 0.000000 0.070000 0.000000
vn 0.0000 1.0000 0.0000
vn 0.0000 -1.0000 0.0000
vn -0.7071 0.0000 -0.7071
vn 0.7071 0.0000 -0.7071
vn 0.7071 0.0000 0.7071
vn -0.7071 0.0000 0.7071
usemtl None
s off
f 12//1 4//1 1//1
f 4//1 2//1 1//1
f 4//1 3//1 2//1
f 12//1 5//1 4//1
f 8//1 10//1 9//1
f 8//1 7//1 10//1
f 7//1 11//1 10//1
f 6//1 11//1 7//1
f 12//1 6//1 5//1
f 12//1 11//1 6//1
f 16//2 24//2 13//2
f 14//2 16//2 13//2
f 15//2 16//2 14//2
f 17//2 24//2 16//2
f 22//2 20//2 21//2
f 19//2 20//2 22//2
f 23//2 19//2 22//2
f 23//2 18//2 19//2
f 18//2 24//2 17//2
f 23//2 24//2 18//2
s 1
f 26//3 28//4 27//4 25//3
f 28//4 30//5 29//5 27//4
f 30//5 32//5 31//5 29//5
f 32//5 34//4 33//4 31//5
f 34//4 36//3 35//3 33//4
f 36//3 38//6 37//6 35//3
f 38//6 40//6 39//6 37//6
f 40//6 42//3 41//3 39//6
f 42//3 44//4 43//4 41//3
f 44//4 46//5 45//5 43//4
f 46//5 48//6 47//6 45//5
f 48//6 26//3 25//3 47//6
